Fira Mono-Bold.ufo 1.13.51 PM
<glyph name="colon" format="1">
  <advance width="600"/>
  <unicode hex="003A"/>
  <outline>
    <contour>
      <point x="194" y="31"/>
      <point x="241" y="-17"/>
      <point x="300" y="-17" type="curve" smooth="yes"/>
      <point x="359" y="-17"/>
      <point x="405" y="31"/>
      <point x="405" y="89" type="curve" smooth="yes"/>
      <point x="405" y="146"/>
      <point x="359" y="193"/>
      <point x="300" y="193" type="curve" smooth="yes"/>
      <point x="241" y="193"/>
      <point x="194" y="146"/>
      <point x="194" y="89" type="curve" smooth="yes"/>
    </contour>
    <contour>
      <point x="194" y="377"/>
      <point x="241" y="329"/>
      <point x="300" y="329" type="curve" smooth="yes"/>
      <point x="359" y="329"/>
      <point x="405" y="377"/>
      <point x="405" y="434" type="curve" smooth="yes"/>
      <point x="405" y="491"/>
      <point x="359" y="540"/>
      <point x="300" y="540" type="curve" smooth="yes"/>
      <point x="241" y="540"/>
      <point x="194" y="491"/>
      <point x="194" y="434" type="curve" smooth="yes"/>
    </contour>
  </outline>
</glyph>
<glyph name="D" format="1">
  <advance width="600"/>
  <unicode hex="0044"/>
  <outline>
    <contour>
      <point x="403" y="169"/>
      <point x="342" y="120"/>
      <point x="251" y="120" type="curve" smooth="yes"/>
      <point x="217" y="120" type="line"/>
      <point x="217" y="573" type="line"/>
      <point x="251" y="573" type="line" smooth="yes"/>
      <point x="338" y="573"/>
      <point x="403" y="535"/>
      <point x="403" y="350" type="curve" smooth="yes"/>
    </contour>
    <contour>
      <point x="575" y="636"/>
      <point x="405" y="693"/>
      <point x="227" y="693" type="curve" smooth="yes"/>
      <point x="51" y="693" type="line"/>
      <point x="51" y="0" type="line"/>
      <point x="239" y="0" type="line" smooth="yes"/>
      <point x="412" y="0"/>
      <point x="575" y="68"/>
      <point x="575" y="350" type="curve" smooth="yes"/>
    </contour>
    <contour>
      <point x="300" y="347" type="move" name="center"/>
    </contour>
    <contour>
      <point x="287" y="693" type="move" name="top"/>
    </contour>
  </outline>
</glyph>
<glyph name="N" format="1">
  <advance width="600"/>
  <unicode hex="004E"/>
  <outline>
    <contour>
      <point x="549" y="0" type="line"/>
      <point x="549" y="693" type="line"/>
      <point x="408" y="693" type="line"/>
      <point x="408" y="430" type="line" smooth="yes"/>
      <point x="408" y="305"/>
      <point x="422" y="204"/>
      <point x="433" y="154" type="curve"/>
      <point x="429" y="154" type="line"/>
      <point x="258" y="693" type="line"/>
      <point x="51" y="693" type="line"/>
      <point x="51" y="0" type="line"/>
      <point x="192" y="0" type="line"/>
      <point x="192" y="259" type="line" smooth="yes"/>
      <point x="192" y="381"/>
      <point x="176" y="496"/>
      <point x="167" y="538" type="curve"/>
      <point x="171" y="538" type="line"/>
      <point x="348" y="0" type="line"/>
    </contour>
    <contour>
      <point x="310" y="693" type="move" name="top"/>
    </contour>
    <contour>
      <point x="300" y="0" type="move" name="bottom"/>
    </contour>
  </outline>
</glyph>
<glyph name="grave" format="1">
  <advance width="600"/>
  <unicode hex="0060"/>
  <outline>
    <contour>
      <point x="443" y="689" type="line"/>
      <point x="227" y="833" type="line"/>
      <point x="157" y="714" type="line"/>
      <point x="395" y="608" type="line"/>
    </contour>
    <contour>
      <point x="300" y="531" type="move" name="_top"/>
    </contour>
  </outline>
</glyph>
<glyph name="h" format="1">
  <advance width="600"/>
  <unicode hex="0068"/>
  <outline>
    <contour>
      <point x="69" y="742" type="line"/>
      <point x="69" y="0" type="line"/>
      <point x="229" y="0" type="line"/>
      <point x="229" y="367" type="line"/>
      <point x="259" y="407"/>
      <point x="288" y="431"/>
      <point x="321" y="431" type="curve" smooth="yes"/>
      <point x="359" y="431"/>
      <point x="371" y="409"/>
      <point x="371" y="345" type="curve" smooth="yes"/>
      <point x="371" y="0" type="line"/>
      <point x="531" y="0" type="line"/>
      <point x="531" y="390" type="line" smooth="yes"/>
      <point x="531" y="491"/>
      <point x="479" y="549"/>
      <point x="385" y="549" type="curve" smooth="yes"/>
      <point x="326" y="549"/>
      <point x="274" y="526"/>
      <point x="229" y="479" type="curve"/>
      <point x="229" y="758" type="line"/>
    </contour>
    <contour>
      <point x="300" y="266" type="move" name="center"/>
    </contour>
    <contour>
      <point x="300" y="742" type="move" name="top"/>
    </contour>
  </outline>
</glyph>
<glyph name="n" format="1">
  <advance width="600"/>
  <unicode hex="006E"/>
  <outline>
    <contour>
      <point x="229" y="0" type="line"/>
      <point x="229" y="367" type="line"/>
      <point x="259" y="407"/>
      <point x="288" y="431"/>
      <point x="321" y="431" type="curve" smooth="yes"/>
      <point x="359" y="431"/>
      <point x="371" y="409"/>
      <point x="371" y="345" type="curve" smooth="yes"/>
      <point x="371" y="0" type="line"/>
      <point x="531" y="0" type="line"/>
      <point x="531" y="390" type="line" smooth="yes"/>
      <point x="531" y="491"/>
      <point x="479" y="549"/>
      <point x="385" y="549" type="curve" smooth="yes"/>
      <point x="322" y="549"/>
      <point x="267" y="523"/>
      <point x="220" y="470" type="curve"/>
      <point x="209" y="531" type="line"/>
      <point x="69" y="531" type="line"/>
      <point x="69" y="0" type="line"/>
    </contour>
    <contour>
      <point x="301" y="518" type="move" name="top"/>
    </contour>
    <contour>
      <point x="301" y="0" type="move" name="bottom"/>
    </contour>
    <contour>
      <point x="301" y="0" type="move" name="bottomAttach"/>
    </contour>
  </outline>
</glyph>
<glyph name="r" format="1">
  <advance width="600"/>
  <unicode hex="0072"/>
  <outline>
    <contour>
      <point x="479" y="109" type="line"/>
      <point x="344" y="109" type="line"/>
      <point x="344" y="267" type="line"/>
      <point x="361" y="338"/>
      <point x="398" y="391"/>
      <point x="464" y="391" type="curve" smooth="yes"/>
      <point x="488" y="391"/>
      <point x="506" y="388"/>
      <point x="525" y="383" type="curve"/>
      <point x="551" y="538" type="line"/>
      <point x="528" y="544"/>
      <point x="512" y="547"/>
      <point x="485" y="547" type="curve" smooth="yes"/>
      <point x="420" y="547"/>
      <point x="363" y="503"/>
      <point x="339" y="432" type="curve"/>
      <point x="326" y="531" type="line"/>
      <point x="74" y="531" type="line"/>
      <point x="74" y="422" type="line"/>
      <point x="184" y="422" type="line"/>
      <point x="184" y="109" type="line"/>
      <point x="74" y="109" type="line"/>
      <point x="74" y="0" type="line"/>
      <point x="479" y="0" type="line"/>
    </contour>
    <contour>
      <point x="315" y="531" type="move" name="top"/>
    </contour>
    <contour>
      <point x="264" y="0" type="move" name="bottom"/>
    </contour>
  </outline>
</glyph>
<glyph name="t" format="1">
  <advance width="600"/>
  <unicode hex="0074"/>
  <outline>
    <contour>
      <point x="496" y="133" type="line"/>
      <point x="471" y="119"/>
      <point x="440" y="109"/>
      <point x="403" y="109" type="curve" smooth="yes"/>
      <point x="351" y="109"/>
      <point x="328" y="129"/>
      <point x="328" y="182" type="curve" smooth="yes"/>
      <point x="328" y="421" type="line"/>
      <point x="483" y="421" type="line"/>
      <point x="499" y="531" type="line"/>
      <point x="328" y="531" type="line"/>
      <point x="328" y="665" type="line"/>
      <point x="168" y="646" type="line"/>
      <point x="168" y="531" type="line"/>
      <point x="57" y="531" type="line"/>
      <point x="57" y="421" type="line"/>
      <point x="168" y="421" type="line"/>
      <point x="168" y="182" type="line" smooth="yes"/>
      <point x="168" y="59"/>
      <point x="234" y="-17"/>
      <point x="374" y="-17" type="curve" smooth="yes"/>
      <point x="448" y="-17"/>
      <point x="507" y="4"/>
      <point x="549" y="31" type="curve"/>
    </contour>
    <contour>
      <point x="300" y="266" type="move" name="center"/>
    </contour>
    <contour>
      <point x="360" y="0" type="move" name="bottom"/>
    </contour>
    <contour>
      <point x="355" y="742" type="move" name="topright"/>
    </contour>
  </outline>
</glyph>
<glyph name="braceleft" format="1">
  <advance width="600"/>
  <unicode hex="007B"/>
  <outline>
    <contour>
      <point x="281" y="840"/>
      <point x="212" y="791"/>
      <point x="227" y="654" type="curve" smooth="yes"/>
      <point x="242" y="513" type="line" smooth="yes"/>
      <point x="250" y="437"/>
      <point x="188" y="415"/>
      <point x="105" y="415" type="curve"/>
      <point x="105" y="285" type="line"/>
      <point x="189" y="285"/>
      <point x="250" y="263"/>
      <point x="242" y="187" type="curve" smooth="yes"/>
      <point x="227" y="45" type="line" smooth="yes"/>
      <point x="213" y="-90"/>
      <point x="281" y="-140"/>
      <point x="467" y="-140" type="curve"/>
      <point x="467" y="-29" type="line"/>
      <point x="407" y="-29"/>
      <point x="370" y="-16"/>
      <point x="375" y="34" type="curve" smooth="yes"/>
      <point x="390" y="180" type="line" smooth="yes"/>
      <point x="402" y="294"/>
      <point x="341" y="334"/>
      <point x="233" y="350" type="curve"/>
      <point x="335" y="365"/>
      <point x="402" y="407"/>
      <point x="390" y="520" type="curve" smooth="yes"/>
      <point x="375" y="666" type="line" smooth="yes"/>
      <point x="370" y="716"/>
      <point x="406" y="729"/>
      <point x="467" y="729" type="curve"/>
      <point x="467" y="840" type="line"/>
    </contour>
  </outline>
</glyph>
<glyph name="braceright" format="1">
  <advance width="600"/>
  <unicode hex="007D"/>
  <outline>
    <contour>
      <point x="133" y="729" type="line"/>
      <point x="193" y="729"/>
      <point x="230" y="716"/>
      <point x="225" y="666" type="curve" smooth="yes"/>
      <point x="210" y="520" type="line" smooth="yes"/>
      <point x="198" y="406"/>
      <point x="259" y="366"/>
      <point x="367" y="350" type="curve"/>
      <point x="265" y="335"/>
      <point x="198" y="293"/>
      <point x="210" y="180" type="curve" smooth="yes"/>
      <point x="225" y="34" type="line" smooth="yes"/>
      <point x="230" y="-16"/>
      <point x="194" y="-29"/>
      <point x="133" y="-29" type="curve"/>
      <point x="133" y="-140" type="line"/>
      <point x="319" y="-140"/>
      <point x="388" y="-91"/>
      <point x="373" y="46" type="curve" smooth="yes"/>
      <point x="358" y="187" type="line" smooth="yes"/>
      <point x="350" y="263"/>
      <point x="412" y="285"/>
      <point x="495" y="285" type="curve"/>
      <point x="495" y="415" type="line"/>
      <point x="411" y="415"/>
      <point x="350" y="437"/>
      <point x="358" y="513" type="curve" smooth="yes"/>
      <point x="373" y="655" type="line" smooth="yes"/>
      <point x="387" y="790"/>
      <point x="319" y="840"/>
      <point x="133" y="840" type="curve"/>
    </contour>
  </outline>
</glyph>
<glyph name="yen" format="1">
  <advance width="600"/>
  <unicode hex="00A5"/>
  <outline>
    <contour>
      <point x="428" y="693" type="line"/>
      <point x="306" y="409" type="line"/>
      <point x="302" y="409" type="line"/>
      <point x="177" y="693" type="line"/>
      <point x="7" y="693" type="line"/>
      <point x="185" y="352" type="line"/>
      <point x="89" y="352" type="line"/>
      <point x="89" y="270" type="line"/>
      <point x="221" y="270" type="line"/>
      <point x="221" y="202" type="line"/>
      <point x="89" y="202" type="line"/>
      <point x="89" y="119" type="line"/>
      <point x="221" y="119" type="line"/>
      <point x="221" y="0" type="line"/>
      <point x="381" y="0" type="line"/>
      <point x="381" y="119" type="line"/>
      <point x="515" y="119" type="line"/>
      <point x="515" y="202" type="line"/>
      <point x="381" y="202" type="line"/>
      <point x="381" y="270" type="line"/>
      <point x="515" y="270" type="line"/>
      <point x="515" y="352" type="line"/>
      <point x="416" y="352" type="line"/>
      <point x="593" y="693" type="line"/>
    </contour>
    <contour>
      <point x="374" y="0" type="move" name="bottom"/>
    </contour>
  </outline>
</glyph>
<glyph name="Eth" format="1">
  <advance width="600"/>
  <unicode hex="00D0"/>
  <outline>
    <contour>
      <point x="64" y="403" type="line"/>
      <point x="9" y="403" type="line"/>
      <point x="9" y="303" type="line"/>
      <point x="230" y="303" type="line"/>
      <point x="349" y="303" type="line"/>
      <point x="349" y="403" type="line"/>
    </contour>
    <component base="D" xOffset="13"/>
  </outline>
</glyph>
<glyph name="Thorn" format="1">
  <advance width="600"/>
  <unicode hex="00DE"/>
  <outline>
    <contour>
      <point x="58" y="693" type="line"/>
      <point x="58" y="0" type="line"/>
      <point x="225" y="0" type="line"/>
      <point x="225" y="116" type="line"/>
      <point x="301" y="116" type="line" smooth="yes"/>
      <point x="473" y="116"/>
      <point x="577" y="191"/>
      <point x="577" y="354" type="curve" smooth="yes"/>
      <point x="577" y="507"/>
      <point x="467" y="581"/>
      <point x="279" y="581" type="curve" smooth="yes"/>
      <point x="225" y="581" type="line"/>
      <point x="225" y="693" type="line"/>
    </contour>
    <contour>
      <point x="362" y="463"/>
      <point x="404" y="430"/>
      <point x="404" y="353" type="curve" smooth="yes"/>
      <point x="404" y="267"/>
      <point x="361" y="236"/>
      <point x="290" y="236" type="curve" smooth="yes"/>
      <point x="225" y="236" type="line"/>
      <point x="225" y="463" type="line"/>
      <point x="283" y="463" type="line" smooth="yes"/>
    </contour>
  </outline>
</glyph>
<glyph name="oslash" format="1">
  <advance width="600"/>
  <unicode hex="00F8"/>
  <outline>
    <contour>
      <point x="137" y="549"/>
      <point x="41" y="435"/>
      <point x="41" y="266" type="curve" smooth="yes"/>
      <point x="41" y="87"/>
      <point x="137" y="-17"/>
      <point x="300" y="-17" type="curve" smooth="yes"/>
      <point x="463" y="-17"/>
      <point x="559" y="89"/>
      <point x="559" y="267" type="curve" smooth="yes"/>
      <point x="559" y="437"/>
      <point x="464" y="549"/>
      <point x="300" y="549" type="curve" smooth="yes"/>
    </contour>
    <contour>
      <point x="328" y="539" type="line"/>
      <point x="321" y="451" type="line"/>
      <point x="216" y="123" type="line"/>
      <point x="160" y="33" type="line"/>
      <point x="115" y="-103" type="line"/>
      <point x="232" y="-137" type="line"/>
      <point x="272" y="-7" type="line"/>
      <point x="281" y="79" type="line"/>
      <point x="384" y="401" type="line"/>
      <point x="442" y="499" type="line"/>
      <point x="485" y="629" type="line"/>
      <point x="369" y="663" type="line"/>
    </contour>
    <contour>
      <point x="377" y="434"/>
      <point x="397" y="394"/>
      <point x="397" y="267" type="curve" smooth="yes"/>
      <point x="397" y="146"/>
      <point x="367" y="97"/>
      <point x="300" y="97" type="curve" smooth="yes"/>
      <point x="223" y="97"/>
      <point x="203" y="136"/>
      <point x="203" y="266" type="curve" smooth="yes"/>
      <point x="203" y="384"/>
      <point x="233" y="434"/>
      <point x="300" y="434" type="curve" smooth="yes"/>
    </contour>
    <contour>
      <point x="300" y="531" type="move" name="top"/>
    </contour>
  </outline>
</glyph>
<glyph name="hbar" format="1">
  <advance width="600"/>
  <unicode hex="0127"/>
  <outline>
    <contour>
      <point x="69" y="686" type="line"/>
      <point x="8" y="686" type="line"/>
      <point x="8" y="593" type="line"/>
      <point x="229" y="593" type="line"/>
      <point x="369" y="593" type="line"/>
      <point x="369" y="686" type="line"/>
    </contour>
    <component base="h"/>
  </outline>
</glyph>
<glyph name="ij" format="1">
  <advance width="600"/>
  <unicode hex="0133"/>
  <outline>
    <contour>
      <point x="40" y="531" type="line"/>
      <point x="40" y="423" type="line"/>
      <point x="103" y="423" type="line"/>
      <point x="103" y="109" type="line"/>
      <point x="35" y="109" type="line"/>
      <point x="35" y="0" type="line"/>
      <point x="312" y="0" type="line"/>
      <point x="312" y="109" type="line"/>
      <point x="261" y="109" type="line"/>
      <point x="261" y="423" type="line"/>
      <point x="387" y="423" type="line"/>
      <point x="387" y="110" type="line" smooth="yes"/>
      <point x="387" y="-23"/>
      <point x="323" y="-64"/>
      <point x="192" y="-104" type="curve"/>
      <point x="245" y="-222" type="line"/>
      <point x="437" y="-164"/>
      <point x="546" y="-86"/>
      <point x="546" y="124" type="curve" smooth="yes"/>
      <point x="546" y="531" type="line"/>
    </contour>
    <contour>
      <point x="127" y="810"/>
      <point x="88" y="771"/>
      <point x="88" y="720" type="curve" smooth="yes"/>
      <point x="88" y="669"/>
      <point x="127" y="630"/>
      <point x="182" y="630" type="curve" smooth="yes"/>
      <point x="238" y="630"/>
      <point x="278" y="669"/>
      <point x="278" y="720" type="curve" smooth="yes"/>
      <point x="278" y="771"/>
      <point x="238" y="810"/>
      <point x="182" y="810" type="curve" smooth="yes"/>
    </contour>
    <contour>
      <point x="401" y="810"/>
      <point x="361" y="771"/>
      <point x="361" y="720" type="curve" smooth="yes"/>
      <point x="361" y="669"/>
      <point x="401" y="630"/>
      <point x="456" y="630" type="curve" smooth="yes"/>
      <point x="511" y="630"/>
      <point x="551" y="669"/>
      <point x="551" y="720" type="curve" smooth="yes"/>
      <point x="551" y="771"/>
      <point x="511" y="810"/>
      <point x="456" y="810" type="curve" smooth="yes"/>
    </contour>
  </outline>
</glyph>
<glyph name="Tbar" format="1">
  <advance width="600"/>
  <unicode hex="0166"/>
  <outline>
    <contour>
      <point x="499" y="313" type="line"/>
      <point x="499" y="406" type="line"/>
      <point x="216" y="406" type="line"/>
      <point x="100" y="406" type="line"/>
      <point x="100" y="313" type="line"/>
      <point x="382" y="313" type="line"/>
    </contour>
    <component base="T"/>
  </outline>
</glyph>
<glyph name="acutecomb" format="1">
  <advance width="600"/>
  <unicode hex="0301"/>
  <outline>
    <contour>
      <point x="162" y="706" type="line"/>
      <point x="200" y="625" type="line"/>
      <point x="438" y="709" type="line"/>
      <point x="378" y="828" type="line"/>
    </contour>
    <contour>
      <point x="300" y="531" type="move" name="_top"/>
    </contour>
  </outline>
</glyph>
<glyph name="strokeshortoverlay" format="1">
  <advance width="600"/>
  <unicode hex="0335"/>
  <outline>
    <contour>
      <point x="499" y="376" type="line"/>
      <point x="102" y="376" type="line"/>
      <point x="102" y="282" type="line"/>
      <point x="499" y="282" type="line"/>
    </contour>
  </outline>
</glyph>
<glyph name="tonos" format="1">
  <advance width="600"/>
  <unicode hex="0384"/>
  <outline>
    <contour>
      <point x="313" y="585" type="line"/>
      <point x="402" y="823" type="line"/>
      <point x="236" y="854" type="line"/>
      <point x="198" y="602" type="line"/>
    </contour>
    <contour>
      <point x="259" y="531" type="move" name="_top"/>
    </contour>
  </outline>
</glyph>
<glyph name="Theta" format="1">
  <advance width="600"/>
  <unicode hex="0398"/>
  <outline>
    <contour>
      <point x="374" y="398" type="line"/>
      <point x="225" y="398" type="line"/>
      <point x="225" y="307" type="line"/>
      <point x="374" y="307" type="line"/>
    </contour>
    <contour>
      <point x="578" y="572"/>
      <point x="482" y="711"/>
      <point x="300" y="711" type="curve" smooth="yes"/>
      <point x="118" y="711"/>
      <point x="22" y="567"/>
      <point x="22" y="347" type="curve" smooth="yes"/>
      <point x="22" y="122"/>
      <point x="118" y="-17"/>
      <point x="300" y="-17" type="curve" smooth="yes"/>
      <point x="482" y="-17"/>
      <point x="578" y="127"/>
      <point x="578" y="347" type="curve" smooth="yes"/>
    </contour>
    <contour>
      <point x="414" y="175"/>
      <point x="379" y="104"/>
      <point x="300" y="104" type="curve" smooth="yes"/>
      <point x="224" y="104"/>
      <point x="186" y="174"/>
      <point x="186" y="347" type="curve" smooth="yes"/>
      <point x="186" y="521"/>
      <point x="223" y="590"/>
      <point x="300" y="590" type="curve" smooth="yes"/>
      <point x="377" y="590"/>
      <point x="414" y="520"/>
      <point x="414" y="347" type="curve" smooth="yes"/>
    </contour>
  </outline>
</glyph>
<glyph name="Phi" format="1">
  <advance width="600"/>
  <unicode hex="03A6"/>
  <outline>
    <contour>
      <point x="243" y="693" type="line"/>
      <point x="243" y="614" type="line"/>
      <point x="80" y="608"/>
      <point x="4" y="531"/>
      <point x="4" y="350" type="curve" smooth="yes"/>
      <point x="4" y="171"/>
      <point x="80" y="85"/>
      <point x="243" y="80" type="curve"/>
      <point x="243" y="0" type="line"/>
      <point x="357" y="0" type="line"/>
      <point x="357" y="80" type="line"/>
      <point x="514" y="85"/>
      <point x="596" y="171"/>
      <point x="596" y="350" type="curve" smooth="yes"/>
      <point x="596" y="531"/>
      <point x="514" y="608"/>
      <point x="357" y="614" type="curve"/>
      <point x="357" y="693" type="line"/>
    </contour>
    <contour>
      <point x="253" y="171" type="line"/>
      <point x="171" y="173"/>
      <point x="151" y="237"/>
      <point x="151" y="350" type="curve" smooth="yes"/>
      <point x="151" y="464"/>
      <point x="175" y="524"/>
      <point x="253" y="525" type="curve"/>
    </contour>
    <contour>
      <point x="424" y="524"/>
      <point x="449" y="464"/>
      <point x="449" y="350" type="curve" smooth="yes"/>
      <point x="449" y="238"/>
      <point x="429" y="173"/>
      <point x="347" y="171" type="curve"/>
      <point x="347" y="525" type="line"/>
    </contour>
  </outline>
</glyph>
<glyph name="Omega" format="1">
  <advance width="600"/>
  <unicode hex="03A9"/>
  <outline>
    <contour>
      <point x="375" y="589"/>
      <point x="408" y="520"/>
      <point x="408" y="378" type="curve" smooth="yes"/>
      <point x="408" y="227"/>
      <point x="386" y="150"/>
      <point x="327" y="116" type="curve"/>
      <point x="327" y="0" type="line"/>
      <point x="567" y="0" type="line"/>
      <point x="567" y="118" type="line"/>
      <point x="457" y="118" type="line"/>
      <point x="457" y="122" type="line"/>
      <point x="538" y="165"/>
      <point x="578" y="253"/>
      <point x="578" y="378" type="curve" smooth="yes"/>
      <point x="578" y="569"/>
      <point x="479" y="711"/>
      <point x="300" y="711" type="curve" smooth="yes"/>
      <point x="121" y="711"/>
      <point x="22" y="569"/>
      <point x="22" y="378" type="curve" smooth="yes"/>
      <point x="22" y="253"/>
      <point x="61" y="164"/>
      <point x="142" y="122" type="curve"/>
      <point x="142" y="118" type="line"/>
      <point x="33" y="118" type="line"/>
      <point x="33" y="0" type="line"/>
      <point x="273" y="0" type="line"/>
      <point x="273" y="116" type="line"/>
      <point x="215" y="151"/>
      <point x="192" y="227"/>
      <point x="192" y="378" type="curve" smooth="yes"/>
      <point x="192" y="520"/>
      <point x="225" y="589"/>
      <point x="300" y="589" type="curve" smooth="yes"/>
    </contour>
    <component base="Omega"/>
    <contour>
      <point x="300" y="693" type="move" name="top"/>
    </contour>
  </outline>
</glyph>
<glyph name="eta" format="1">
  <advance width="600"/>
  <unicode hex="03B7"/>
  <outline>
    <contour>
      <point x="328" y="549"/>
      <point x="273" y="523"/>
      <point x="225" y="469" type="curve"/>
      <point x="220" y="500"/>
      <point x="212" y="528"/>
      <point x="202" y="545" type="curve"/>
      <point x="54" y="525" type="line"/>
      <point x="64" y="491"/>
      <point x="75" y="435"/>
      <point x="75" y="383" type="curve" smooth="yes"/>
      <point x="75" y="0" type="line"/>
      <point x="235" y="0" type="line"/>
      <point x="235" y="367" type="line"/>
      <point x="265" y="407"/>
      <point x="294" y="431"/>
      <point x="327" y="431" type="curve" smooth="yes"/>
      <point x="366" y="431"/>
      <point x="377" y="409"/>
      <point x="377" y="345" type="curve" smooth="yes"/>
      <point x="377" y="-222" type="line"/>
      <point x="537" y="-205" type="line"/>
      <point x="537" y="390" type="line" smooth="yes"/>
      <point x="537" y="491"/>
      <point x="485" y="549"/>
      <point x="391" y="549" type="curve" smooth="yes"/>
    </contour>
    <contour>
      <point x="310" y="531" type="move" name="top"/>
    </contour>
  </outline>
</glyph>
<glyph name="pi" format="1">
  <advance width="600"/>
  <unicode hex="03C0"/>
  <outline>
    <contour>
      <point x="96" y="432" type="line"/>
      <point x="96" y="0" type="line"/>
      <point x="248" y="0" type="line"/>
      <point x="248" y="432" type="line"/>
    </contour>
    <contour>
      <point x="353" y="432" type="line"/>
      <point x="353" y="159" type="line" smooth="yes"/>
      <point x="353" y="50"/>
      <point x="412" y="-1"/>
      <point x="505" y="-17" type="curve"/>
      <point x="552" y="100" type="line"/>
      <point x="521" y="115"/>
      <point x="508" y="136"/>
      <point x="508" y="180" type="curve" smooth="yes"/>
      <point x="508" y="433" type="line"/>
    </contour>
    <contour>
      <point x="114" y="531" type="line" smooth="yes"/>
      <point x="73" y="531"/>
      <point x="39" y="523"/>
      <point x="4" y="509" type="curve"/>
      <point x="30" y="400" type="line"/>
      <point x="68" y="414"/>
      <point x="108" y="416"/>
      <point x="164" y="416" type="curve" smooth="yes"/>
      <point x="577" y="416" type="line"/>
      <point x="577" y="531" type="line"/>
    </contour>
  </outline>
</glyph>
<glyph name="rho" format="1">
  <advance width="600"/>
  <unicode hex="03C1"/>
  <outline>
    <contour>
      <point x="146" y="549"/>
      <point x="67" y="450"/>
      <point x="67" y="275" type="curve"/>
      <point x="67" y="-222" type="line"/>
      <point x="227" y="-205" type="line"/>
      <point x="227" y="39" type="line"/>
      <point x="259" y="1"/>
      <point x="303" y="-17"/>
      <point x="353" y="-17" type="curve" smooth="yes"/>
      <point x="483" y="-17"/>
      <point x="559" y="107"/>
      <point x="559" y="267" type="curve" smooth="yes"/>
      <point x="559" y="452"/>
      <point x="475" y="549"/>
      <point x="311" y="549" type="curve" smooth="yes"/>
    </contour>
    <contour>
      <point x="363" y="432"/>
      <point x="394" y="395"/>
      <point x="394" y="265" type="curve" smooth="yes"/>
      <point x="394" y="149"/>
      <point x="362" y="100"/>
      <point x="304" y="100" type="curve" smooth="yes"/>
      <point x="273" y="100"/>
      <point x="248" y="115"/>
      <point x="227" y="147" type="curve"/>
      <point x="227" y="248" type="line" smooth="yes"/>
      <point x="227" y="380"/>
      <point x="248" y="432"/>
      <point x="309" y="432" type="curve" smooth="yes"/>
    </contour>
  </outline>
</glyph>
<glyph name="chi" format="1">
  <advance width="600"/>
  <unicode hex="03C7"/>
  <outline>
    <contour>
      <point x="16" y="494" type="line"/>
      <point x="99" y="419"/>
      <point x="171" y="304"/>
      <point x="214" y="174" type="curve"/>
      <point x="301" y="73" type="line"/>
      <point x="427" y="-237" type="line"/>
      <point x="585" y="-193" type="line"/>
      <point x="383" y="173" type="line"/>
      <point x="300" y="271" type="line"/>
      <point x="274" y="391"/>
      <point x="228" y="475"/>
      <point x="170" y="548" type="curve"/>
    </contour>
    <contour>
      <point x="300" y="271" type="line"/>
      <point x="214" y="174" type="line"/>
      <point x="14" y="-200" type="line"/>
      <point x="173" y="-237" type="line"/>
      <point x="301" y="73" type="line"/>
      <point x="383" y="173" type="line"/>
      <point x="565" y="514" type="line"/>
      <point x="414" y="547" type="line"/>
    </contour>
  </outline>
</glyph>
<glyph name="uni0402" format="1">
  <advance width="600"/>
  <unicode hex="0402"/>
  <outline>
    <contour>
      <point x="424" y="575" type="line"/>
      <point x="441" y="693" type="line"/>
      <point x="-8" y="693" type="line"/>
      <point x="-8" y="575" type="line"/>
      <point x="130" y="575" type="line"/>
      <point x="130" y="0" type="line"/>
      <point x="285" y="0" type="line"/>
      <point x="285" y="320" type="line"/>
      <point x="304" y="338"/>
      <point x="327" y="352"/>
      <point x="360" y="352" type="curve" smooth="yes"/>
      <point x="408" y="352"/>
      <point x="427" y="329"/>
      <point x="427" y="267" type="curve" smooth="yes"/>
      <point x="427" y="102" type="line" smooth="yes"/>
      <point x="427" y="18"/>
      <point x="411" y="-24"/>
      <point x="329" y="-58" type="curve"/>
      <point x="372" y="-171" type="line"/>
      <point x="489" y="-132"/>
      <point x="582" y="-66"/>
      <point x="582" y="99" type="curve" smooth="yes"/>
      <point x="582" y="252" type="line" smooth="yes"/>
      <point x="582" y="398"/>
      <point x="520" y="471"/>
      <point x="403" y="471" type="curve" smooth="yes"/>
      <point x="355" y="471"/>
      <point x="317" y="454"/>
      <point x="285" y="427" type="curve"/>
      <point x="285" y="575" type="line"/>
    </contour>
  </outline>
</glyph>
<glyph name="uni040D" format="1">
  <advance width="600"/>
  <unicode hex="040D"/>
  <outline>
    <component base="uni0418"/>
    <component base="grave.case" xOffset="-5"/>
    <contour>
      <point x="333" y="682" type="move" name="top"/>
    </contour>
  </outline>
</glyph>
<glyph name="uni0417" format="1">
  <advance width="600"/>
  <unicode hex="0417"/>
  <outline>
    <contour>
      <point x="179" y="711"/>
      <point x="91" y="680"/>
      <point x="24" y="621" type="curve"/>
      <point x="104" y="537" type="line"/>
      <point x="148" y="572"/>
      <point x="204" y="591"/>
      <point x="266" y="591" type="curve" smooth="yes"/>
      <point x="338" y="591"/>
      <point x="379" y="560"/>
      <point x="379" y="510" type="curve" smooth="yes"/>
      <point x="379" y="454"/>
      <point x="334" y="426"/>
      <point x="265" y="426" type="curve" smooth="yes"/>
      <point x="169" y="426" type="line"/>
      <point x="150" y="308" type="line"/>
      <point x="265" y="308" type="line" smooth="yes"/>
      <point x="348" y="308"/>
      <point x="397" y="275"/>
      <point x="397" y="205" type="curve" smooth="yes"/>
      <point x="397" y="142"/>
      <point x="347" y="104"/>
      <point x="267" y="104" type="curve" smooth="yes"/>
      <point x="199" y="104"/>
      <point x="140" y="126"/>
      <point x="96" y="167" type="curve"/>
      <point x="6" y="82" type="line"/>
      <point x="65" y="19"/>
      <point x="156" y="-17"/>
      <point x="270" y="-17" type="curve" smooth="yes"/>
      <point x="457" y="-17"/>
      <point x="563" y="69"/>
      <point x="563" y="198" type="curve" smooth="yes"/>
      <point x="563" y="300"/>
      <point x="493" y="358"/>
      <point x="384" y="369" type="curve"/>
      <point x="485" y="389"/>
      <point x="542" y="441"/>
      <point x="542" y="526" type="curve" smooth="yes"/>
      <point x="542" y="635"/>
      <point x="440" y="711"/>
      <point x="287" y="711" type="curve" smooth="yes"/>
    </contour>
    <contour>
      <point x="289" y="693" type="move" name="top"/>
    </contour>
    <contour>
      <point x="287" y="0" type="move" name="bottom"/>
    </contour>
  </outline>
</glyph>
<glyph name="uni041B" format="1">
  <advance width="600"/>
  <unicode hex="041B"/>
  <outline>
    <contour>
      <point x="131" y="693" type="line"/>
      <point x="111" y="475" type="line" smooth="yes"/>
      <point x="84" y="181"/>
      <point x="54" y="138"/>
      <point x="-13" y="89" type="curve"/>
      <point x="52" y="-20" type="line"/>
      <point x="192" y="46"/>
      <point x="235" y="125"/>
      <point x="266" y="458" type="curve" smooth="yes"/>
      <point x="276" y="567" type="line"/>
      <point x="383" y="567" type="line"/>
      <point x="383" y="0" type="line"/>
      <point x="549" y="0" type="line"/>
      <point x="549" y="693" type="line"/>
    </contour>
  </outline>
</glyph>
<glyph name="uni0423" format="1">
  <advance width="600"/>
  <unicode hex="0423"/>
  <outline>
    <contour>
      <point x="440" y="693" type="line"/>
      <point x="311" y="278" type="line"/>
      <point x="166" y="693" type="line"/>
      <point x="-6" y="693" type="line"/>
      <point x="209" y="183" type="line"/>
      <point x="262" y="183" type="line"/>
      <point x="231" y="129"/>
      <point x="190" y="106"/>
      <point x="84" y="96" type="curve"/>
      <point x="106" y="-17" type="line"/>
      <point x="296" y="-2"/>
      <point x="364" y="58"/>
      <point x="433" y="237" type="curve" smooth="yes"/>
      <point x="608" y="693" type="line"/>
    </contour>
    <contour>
      <point x="310" y="693" type="move" name="top"/>
    </contour>
  </outline>
</glyph>
<glyph name="uni042C" format="1">
  <advance width="600"/>
  <unicode hex="042C"/>
  <outline>
    <contour>
      <point x="54" y="693" type="line"/>
      <point x="54" y="0" type="line"/>
      <point x="298" y="0" type="line" smooth="yes"/>
      <point x="466" y="0"/>
      <point x="577" y="76"/>
      <point x="577" y="236" type="curve" smooth="yes"/>
      <point x="577" y="389"/>
      <point x="468" y="460"/>
      <point x="287" y="460" type="curve" smooth="yes"/>
      <point x="220" y="460" type="line"/>
      <point x="220" y="693" type="line"/>
    </contour>
    <contour>
      <point x="366" y="342"/>
      <point x="406" y="309"/>
      <point x="406" y="235" type="curve" smooth="yes"/>
      <point x="406" y="155"/>
      <point x="364" y="121"/>
      <point x="287" y="121" type="curve" smooth="yes"/>
      <point x="220" y="121" type="line"/>
      <point x="220" y="342" type="line"/>
      <point x="281" y="342" type="line" smooth="yes"/>
    </contour>
  </outline>
</glyph>
<glyph name="uni0447" format="1">
  <advance width="600"/>
  <unicode hex="0447"/>
  <outline>
    <contour>
      <point x="367" y="531" type="line"/>
      <point x="367" y="300" type="line"/>
      <point x="343" y="280"/>
      <point x="308" y="266"/>
      <point x="274" y="266" type="curve" smooth="yes"/>
      <point x="234" y="266"/>
      <point x="207" y="283"/>
      <point x="207" y="333" type="curve" smooth="yes"/>
      <point x="207" y="531" type="line"/>
      <point x="47" y="531" type="line"/>
      <point x="47" y="313" type="line" smooth="yes"/>
      <point x="47" y="212"/>
      <point x="106" y="148"/>
      <point x="215" y="148" type="curve" smooth="yes"/>
      <point x="278" y="148"/>
      <point x="330" y="167"/>
      <point x="367" y="197" type="curve"/>
      <point x="367" y="0" type="line"/>
      <point x="527" y="0" type="line"/>
      <point x="527" y="531" type="line"/>
    </contour>
    <contour>
      <point x="287" y="531" type="move" name="top"/>
    </contour>
    <contour>
      <point x="536" y="0" type="move" name="bottomright"/>
    </contour>
    <contour>
      <point x="357" y="0" type="move" name="bottomleft"/>
    </contour>
  </outline>
</glyph>
<glyph name="uni0454" format="1">
  <advance width="600"/>
  <unicode hex="0454"/>
  <outline>
    <contour>
      <point x="176" y="549"/>
      <point x="68" y="428"/>
      <point x="68" y="262" type="curve" smooth="yes"/>
      <point x="68" y="96"/>
      <point x="168" y="-17"/>
      <point x="342" y="-17" type="curve" smooth="yes"/>
      <point x="418" y="-17"/>
      <point x="490" y="7"/>
      <point x="541" y="47" type="curve"/>
      <point x="473" y="139" type="line"/>
      <point x="435" y="112"/>
      <point x="398" y="99"/>
      <point x="355" y="99" type="curve" smooth="yes"/>
      <point x="287" y="99"/>
      <point x="239" y="133"/>
      <point x="230" y="221" type="curve"/>
      <point x="439" y="221" type="line"/>
      <point x="439" y="321" type="line"/>
      <point x="230" y="321" type="line"/>
      <point x="240" y="398"/>
      <point x="283" y="433"/>
      <point x="353" y="433" type="curve" smooth="yes"/>
      <point x="392" y="433"/>
      <point x="434" y="420"/>
      <point x="473" y="393" type="curve"/>
      <point x="541" y="482" type="line"/>
      <point x="489" y="526"/>
      <point x="425" y="549"/>
      <point x="344" y="549" type="curve" smooth="yes"/>
    </contour>
  </outline>
</glyph>
<glyph name="uni0493" format="1">
  <advance width="600"/>
  <unicode hex="0493"/>
  <outline>
    <contour>
      <point x="147" y="312" type="line"/>
      <point x="72" y="312" type="line"/>
      <point x="72" y="212" type="line"/>
      <point x="423" y="212" type="line"/>
      <point x="423" y="312" type="line"/>
    </contour>
    <component base="uni0433" xOffset="26"/>
  </outline>
</glyph>
<glyph name="uni0497" format="1">
  <advance width="600"/>
  <unicode hex="0497"/>
  <outline>
    <contour>
      <point x="354" y="0" type="line"/>
      <point x="354" y="232" type="line"/>
      <point x="379" y="232" type="line"/>
      <point x="457" y="0" type="line"/>
      <point x="597" y="0" type="line"/>
      <point x="485" y="285" type="line"/>
      <point x="593" y="531" type="line"/>
      <point x="458" y="531" type="line"/>
      <point x="381" y="320" type="line"/>
      <point x="354" y="320" type="line"/>
      <point x="354" y="531" type="line"/>
      <point x="246" y="531" type="line"/>
      <point x="246" y="320" type="line"/>
      <point x="219" y="320" type="line"/>
      <point x="146" y="531" type="line"/>
      <point x="7" y="531" type="line"/>
      <point x="116" y="285" type="line"/>
      <point x="4" y="0" type="line"/>
      <point x="147" y="0" type="line"/>
      <point x="221" y="232" type="line"/>
      <point x="246" y="232" type="line"/>
      <point x="246" y="0" type="line"/>
    </contour>
    <component base="descStraight-cy" xOffset="255"/>
    <contour>
      <point x="587" y="0" type="move" name="bottomright"/>
    </contour>
  </outline>
</glyph>
<glyph name="uni049C" format="1">
  <advance width="600"/>
  <unicode hex="049C"/>
  <outline>
    <contour>
      <point x="291" y="147" type="line"/>
      <point x="291" y="309" type="line"/>
      <point x="310" y="309" type="line"/>
      <point x="430" y="0" type="line"/>
      <point x="604" y="0" type="line"/>
      <point x="430" y="379" type="line"/>
      <point x="585" y="693" type="line"/>
      <point x="426" y="693" type="line"/>
      <point x="307" y="413" type="line"/>
      <point x="291" y="413" type="line"/>
      <point x="291" y="573" type="line"/>
      <point x="236" y="573" type="line"/>
      <point x="236" y="413" type="line"/>
      <point x="201" y="413" type="line"/>
      <point x="201" y="693" type="line"/>
      <point x="51" y="693" type="line"/>
      <point x="51" y="0" type="line"/>
      <point x="201" y="0" type="line"/>
      <point x="201" y="309" type="line"/>
      <point x="236" y="309" type="line"/>
      <point x="236" y="147" type="line"/>
    </contour>
  </outline>
</glyph>
<glyph name="uni04B0" format="1">
  <advance width="600"/>
  <unicode hex="04B0"/>
  <outline>
    <contour>
      <point x="199" y="293" type="line"/>
      <point x="101" y="293" type="line"/>
      <point x="101" y="200" type="line"/>
      <point x="383" y="200" type="line"/>
      <point x="499" y="200" type="line"/>
      <point x="499" y="293" type="line"/>
    </contour>
    <component base="Y"/>
  </outline>
</glyph>
<glyph name="uni04B9" format="1">
  <advance width="600"/>
  <unicode hex="04B9"/>
  <outline>
    <contour>
      <point x="254" y="400" type="line"/>
      <point x="254" y="81" type="line"/>
      <point x="314" y="81" type="line"/>
      <point x="314" y="400" type="line"/>
    </contour>
    <component base="uni0447"/>
  </outline>
</glyph>
<glyph name="uni04BB" format="1">
  <advance width="600"/>
  <unicode hex="04BB"/>
  <outline>
    <contour>
      <point x="313" y="496"/>
      <point x="256" y="466"/>
      <point x="219" y="418" type="curve"/>
      <point x="219" y="308" type="line"/>
      <point x="247" y="349"/>
      <point x="279" y="378"/>
      <point x="319" y="378" type="curve" smooth="yes"/>
      <point x="353" y="378"/>
      <point x="369" y="363"/>
      <point x="369" y="318" type="curve" smooth="yes"/>
      <point x="369" y="0" type="line"/>
      <point x="529" y="0" type="line"/>
      <point x="529" y="338" type="line" smooth="yes"/>
      <point x="529" y="438"/>
      <point x="478" y="496"/>
      <point x="377" y="496" type="curve" smooth="yes"/>
    </contour>
    <contour>
      <point x="71" y="742" type="line"/>
      <point x="71" y="0" type="line"/>
      <point x="231" y="0" type="line"/>
      <point x="231" y="758" type="line"/>
    </contour>
    <contour>
      <point x="539" y="0" type="move" name="bottomright"/>
    </contour>
  </outline>
</glyph>
<glyph name="uni04E8" format="1">
  <advance width="600"/>
  <unicode hex="04E8"/>
  <outline>
    <contour>
      <point x="578" y="572"/>
      <point x="482" y="711"/>
      <point x="300" y="711" type="curve" smooth="yes"/>
      <point x="118" y="711"/>
      <point x="22" y="567"/>
      <point x="22" y="347" type="curve" smooth="yes"/>
      <point x="22" y="122"/>
      <point x="118" y="-17"/>
      <point x="300" y="-17" type="curve" smooth="yes"/>
      <point x="482" y="-17"/>
      <point x="578" y="127"/>
      <point x="578" y="347" type="curve" smooth="yes"/>
    </contour>
    <contour>
      <point x="226" y="104"/>
      <point x="191" y="166"/>
      <point x="187" y="301" type="curve"/>
      <point x="413" y="301" type="line"/>
      <point x="408" y="167"/>
      <point x="376" y="104"/>
      <point x="300" y="104" type="curve" smooth="yes"/>
    </contour>
    <contour>
      <point x="372" y="590"/>
      <point x="406" y="532"/>
      <point x="412" y="402" type="curve"/>
      <point x="187" y="402" type="line"/>
      <point x="194" y="532"/>
      <point x="228" y="590"/>
      <point x="300" y="590" type="curve" smooth="yes"/>
    </contour>
    <contour>
      <point x="300" y="693" type="move" name="top"/>
    </contour>
  </outline>
</glyph>
<glyph name="uni04E9" format="1">
  <advance width="600"/>
  <unicode hex="04E9"/>
  <outline>
    <contour>
      <point x="137" y="549"/>
      <point x="41" y="435"/>
      <point x="41" y="266" type="curve" smooth="yes"/>
      <point x="41" y="87"/>
      <point x="137" y="-17"/>
      <point x="300" y="-17" type="curve" smooth="yes"/>
      <point x="463" y="-17"/>
      <point x="559" y="89"/>
      <point x="559" y="267" type="curve" smooth="yes"/>
      <point x="559" y="437"/>
      <point x="464" y="549"/>
      <point x="300" y="549" type="curve" smooth="yes"/>
    </contour>
    <contour>
      <point x="393" y="132"/>
      <point x="358" y="98"/>
      <point x="300" y="98" type="curve" smooth="yes"/>
      <point x="240" y="98"/>
      <point x="206" y="132"/>
      <point x="198" y="223" type="curve"/>
      <point x="401" y="223" type="line"/>
    </contour>
    <contour>
      <point x="358" y="434"/>
      <point x="392" y="398"/>
      <point x="400" y="313" type="curve"/>
      <point x="199" y="313" type="line"/>
      <point x="207" y="398"/>
      <point x="241" y="434"/>
      <point x="300" y="434" type="curve" smooth="yes"/>
    </contour>
    <contour>
      <point x="301" y="531" type="move" name="top"/>
    </contour>
  </outline>
</glyph>
<glyph name="uni0526" format="1">
  <advance width="600"/>
  <unicode hex="0526"/>
  <outline>
    <contour>
      <point x="298" y="471"/>
      <point x="246" y="447"/>
      <point x="205" y="412" type="curve"/>
      <point x="208" y="303" type="line"/>
      <point x="230" y="326"/>
      <point x="262" y="348"/>
      <point x="306" y="348" type="curve" smooth="yes"/>
      <point x="363" y="348"/>
      <point x="390" y="317"/>
      <point x="390" y="230" type="curve" smooth="yes"/>
      <point x="390" y="0" type="line"/>
      <point x="556" y="0" type="line"/>
      <point x="556" y="231" type="line" smooth="yes"/>
      <point x="556" y="386"/>
      <point x="484" y="471"/>
      <point x="353" y="471" type="curve" smooth="yes"/>
    </contour>
    <contour>
      <point x="51" y="693" type="line"/>
      <point x="51" y="0" type="line"/>
      <point x="217" y="0" type="line"/>
      <point x="217" y="693" type="line"/>
    </contour>
    <component base="descStraight-cy.case" xOffset="212"/>
  </outline>
</glyph>
<glyph name="fraction" format="1">
  <advance width="0"/>
  <unicode hex="2044"/>
  <outline>
    <contour>
      <point x="288" y="431" type="line"/>
      <point x="247" y="507" type="line"/>
      <point x="-288" y="251" type="line"/>
      <point x="-246" y="175" type="line"/>
    </contour>
  </outline>
</glyph>
<glyph name="litre" format="1">
  <advance width="600"/>
  <unicode hex="2113"/>
  <outline>
    <contour>
      <point x="228" y="759"/>
      <point x="167" y="673"/>
      <point x="167" y="519" type="curve" smooth="yes"/>
      <point x="167" y="365" type="line"/>
      <point x="136" y="356"/>
      <point x="102" y="349"/>
      <point x="64" y="342" type="curve"/>
      <point x="81" y="248" type="line"/>
      <point x="112" y="253"/>
      <point x="140" y="259"/>
      <point x="167" y="265" type="curve"/>
      <point x="167" y="190" type="line" smooth="yes"/>
      <point x="167" y="70"/>
      <point x="226" y="-17"/>
      <point x="354" y="-17" type="curve" smooth="yes"/>
      <point x="422" y="-17"/>
      <point x="472" y="-1"/>
      <point x="508" y="18" type="curve"/>
      <point x="470" y="125" type="line"/>
      <point x="448" y="116"/>
      <point x="421" y="109"/>
      <point x="391" y="109" type="curve" smooth="yes"/>
      <point x="346" y="109"/>
      <point x="318" y="135"/>
      <point x="318" y="177" type="curve" smooth="yes"/>
      <point x="318" y="311" type="line"/>
      <point x="455" y="366"/>
      <point x="531" y="476"/>
      <point x="531" y="611" type="curve" smooth="yes"/>
      <point x="531" y="691"/>
      <point x="467" y="759"/>
      <point x="365" y="759" type="curve" smooth="yes"/>
    </contour>
    <contour>
      <point x="389" y="660"/>
      <point x="400" y="640"/>
      <point x="400" y="609" type="curve" smooth="yes"/>
      <point x="400" y="558"/>
      <point x="377" y="456"/>
      <point x="318" y="422" type="curve"/>
      <point x="318" y="542" type="line" smooth="yes"/>
      <point x="318" y="635"/>
      <point x="331" y="660"/>
      <point x="366" y="660" type="curve" smooth="yes"/>
    </contour>
  </outline>
</glyph>
<glyph name="arrowupdown" format="1">
  <advance width="600"/>
  <unicode hex="2195"/>
  <outline>
    <contour>
      <point x="-17" y="594" type="line"/>
      <point x="75" y="496" type="line"/>
      <point x="144" y="564" type="line" smooth="yes"/>
      <point x="186" y="606"/>
      <point x="207" y="631"/>
      <point x="226" y="667" type="curve"/>
      <point x="226" y="-4" type="line"/>
      <point x="207" y="32"/>
      <point x="186" y="57"/>
      <point x="144" y="99" type="curve" smooth="yes"/>
      <point x="75" y="167" type="line"/>
      <point x="-17" y="69" type="line"/>
      <point x="300" y="-229" type="line"/>
      <point x="617" y="69" type="line"/>
      <point x="525" y="167" type="line"/>
      <point x="457" y="100" type="line" smooth="yes"/>
      <point x="415" y="58"/>
      <point x="396" y="35"/>
      <point x="374" y="-5" type="curve"/>
      <point x="374" y="668" type="line"/>
      <point x="396" y="628"/>
      <point x="415" y="605"/>
      <point x="457" y="563" type="curve" smooth="yes"/>
      <point x="525" y="496" type="line"/>
      <point x="617" y="594" type="line"/>
      <point x="300" y="892" type="line"/>
    </contour>
  </outline>
</glyph>
<glyph name="arrowupleft" format="1">
  <advance width="600"/>
  <unicode hex="2196"/>
  <outline>
    <contour>
      <point x="590" y="141" type="line"/>
      <point x="240" y="480" type="line"/>
      <point x="274" y="472"/>
      <point x="298" y="468"/>
      <point x="348" y="470" type="curve" smooth="yes"/>
      <point x="504" y="478" type="line"/>
      <point x="495" y="607" type="line"/>
      <point x="32" y="585" type="line"/>
      <point x="10" y="122" type="line"/>
      <point x="153" y="113" type="line"/>
      <point x="160" y="245" type="line" smooth="yes"/>
      <point x="163" y="309"/>
      <point x="155" y="337"/>
      <point x="144" y="377" type="curve"/>
      <point x="490" y="40" type="line"/>
    </contour>
  </outline>
</glyph>
<glyph name="arrowdownright" format="1">
  <advance width="600"/>
  <unicode hex="2198"/>
  <outline>
    <contour>
      <point x="10" y="482" type="line"/>
      <point x="360" y="143" type="line"/>
      <point x="326" y="151"/>
      <point x="302" y="155"/>
      <point x="252" y="153" type="curve" smooth="yes"/>
      <point x="96" y="145" type="line"/>
      <point x="105" y="16" type="line"/>
      <point x="568" y="38" type="line"/>
      <point x="590" y="501" type="line"/>
      <point x="447" y="510" type="line"/>
      <point x="440" y="378" type="line" smooth="yes"/>
      <point x="437" y="314"/>
      <point x="445" y="286"/>
      <point x="456" y="246" type="curve"/>
      <point x="110" y="583" type="line"/>
    </contour>
  </outline>
</glyph>
<glyph name="notequal" format="1">
  <advance width="600"/>
  <unicode hex="2260"/>
  <outline>
    <contour>
      <point x="346" y="479" type="line"/>
      <point x="92" y="54" type="line"/>
      <point x="173" y="7" type="line"/>
      <point x="507" y="568" type="line"/>
      <point x="427" y="613" type="line"/>
    </contour>
    <component base="equal"/>
  </outline>
</glyph>
<glyph name="TseHelper-cy" format="1">
  <advance width="600"/>
  <outline>
    <contour>
      <point x="549" y="0" type="line"/>
      <point x="549" y="693" type="line"/>
      <point x="383" y="693" type="line"/>
      <point x="383" y="129" type="line"/>
      <point x="217" y="129" type="line"/>
      <point x="217" y="693" type="line"/>
      <point x="51" y="693" type="line"/>
      <point x="51" y="0" type="line"/>
    </contour>
    <contour>
      <point x="300" y="0" type="move" name="bottom"/>
    </contour>
    <contour>
      <point x="559" y="0" type="move" name="bottomright"/>
    </contour>
  </outline>
</glyph>
<glyph name="acute.case" format="1">
  <advance width="600"/>
  <outline>
    <contour>
      <point x="167" y="832" type="line"/>
      <point x="205" y="751" type="line"/>
      <point x="443" y="835" type="line"/>
      <point x="383" y="954" type="line"/>
    </contour>
    <contour>
      <point x="305" y="693" type="move" name="_top"/>
    </contour>
  </outline>
</glyph>
<glyph name="breve-cy" format="1">
  <advance width="600"/>
  <outline>
    <contour>
      <point x="410" y="611"/>
      <point x="465" y="688"/>
      <point x="473" y="767" type="curve"/>
      <point x="385" y="782" type="line"/>
      <point x="376" y="744"/>
      <point x="346" y="721"/>
      <point x="300" y="721" type="curve" smooth="yes"/>
      <point x="254" y="721"/>
      <point x="224" y="744"/>
      <point x="215" y="782" type="curve"/>
      <point x="127" y="767" type="line"/>
      <point x="135" y="688"/>
      <point x="189" y="611"/>
      <point x="300" y="611" type="curve" smooth="yes"/>
    </contour>
    <contour>
      <point x="300" y="531" type="move" name="_top"/>
    </contour>
  </outline>
</glyph>
<glyph name="circumflex.case" format="1">
  <advance width="600"/>
  <outline>
    <contour>
      <point x="251" y="944" type="line"/>
      <point x="109" y="813" type="line"/>
      <point x="167" y="748" type="line"/>
      <point x="300" y="833" type="line"/>
      <point x="433" y="748" type="line"/>
      <point x="490" y="813" type="line"/>
      <point x="349" y="944" type="line"/>
    </contour>
    <contour>
      <point x="300" y="693" type="move" name="_top"/>
    </contour>
  </outline>
</glyph>
<glyph name="dieresisacutecomb" format="1">
  <advance width="253"/>
  <outline>
    <contour>
      <point x="-51" y="777"/>
      <point x="-92" y="736"/>
      <point x="-92" y="685" type="curve" smooth="yes"/>
      <point x="-92" y="633"/>
      <point x="-51" y="592"/>
      <point x="3" y="592" type="curve" smooth="yes"/>
      <point x="55" y="592"/>
      <point x="98" y="633"/>
      <point x="98" y="685" type="curve" smooth="yes"/>
      <point x="98" y="736"/>
      <point x="55" y="777"/>
      <point x="3" y="777" type="curve" smooth="yes"/>
    </contour>
    <contour>
      <point x="214" y="777"/>
      <point x="173" y="736"/>
      <point x="173" y="685" type="curve" smooth="yes"/>
      <point x="173" y="633"/>
      <point x="214" y="592"/>
      <point x="268" y="592" type="curve" smooth="yes"/>
      <point x="320" y="592"/>
      <point x="363" y="633"/>
      <point x="363" y="685" type="curve" smooth="yes"/>
      <point x="363" y="736"/>
      <point x="320" y="777"/>
      <point x="268" y="777" type="curve" smooth="yes"/>
    </contour>
    <contour>
      <point x="-8" y="894" type="line"/>
      <point x="40" y="795" type="line"/>
      <point x="299" y="874" type="line"/>
      <point x="230" y="1018" type="line"/>
    </contour>
    <contour>
      <point x="136" y="531" type="move" name="_top"/>
    </contour>
  </outline>
</glyph>
<glyph name="five.tosf" format="1">
  <advance width="600"/>
  <outline>
    <contour>
      <point x="92" y="573" type="line"/>
      <point x="92" y="205" type="line"/>
      <point x="200" y="205" type="line"/>
      <point x="230" y="222"/>
      <point x="259" y="228"/>
      <point x="284" y="228" type="curve" smooth="yes"/>
      <point x="340" y="228"/>
      <point x="377" y="194"/>
      <point x="377" y="115" type="curve" smooth="yes"/>
      <point x="377" y="47"/>
      <point x="329" y="-2"/>
      <point x="256" y="-2" type="curve" smooth="yes"/>
      <point x="208" y="-2"/>
      <point x="163" y="21"/>
      <point x="130" y="61" type="curve"/>
      <point x="38" y="-20" type="line"/>
      <point x="89" y="-83"/>
      <point x="168" y="-124"/>
      <point x="269" y="-124" type="curve" smooth="yes"/>
      <point x="432" y="-124"/>
      <point x="542" y="-20"/>
      <point x="542" y="118" type="curve" smooth="yes"/>
      <point x="542" y="252"/>
      <point x="454" y="338"/>
      <point x="347" y="338" type="curve" smooth="yes"/>
      <point x="317" y="338"/>
      <point x="279" y="332"/>
      <point x="245" y="316" type="curve"/>
      <point x="245" y="459" type="line"/>
      <point x="498" y="459" type="line"/>
      <point x="516" y="573" type="line"/>
    </contour>
  </outline>
</glyph>
<glyph name="ogonek.thin" format="1">
  <advance width="600"/>
  <outline>
    <contour>
      <point x="261" y="10"/>
      <point x="169" y="-35"/>
      <point x="169" y="-130" type="curve" smooth="yes"/>
      <point x="169" y="-210"/>
      <point x="236" y="-254"/>
      <point x="321" y="-254" type="curve" smooth="yes"/>
      <point x="344" y="-254"/>
      <point x="362" y="-251"/>
      <point x="380" y="-246" type="curve"/>
      <point x="392" y="-152" type="line"/>
      <point x="375" y="-156"/>
      <point x="359" y="-159"/>
      <point x="338" y="-159" type="curve" smooth="yes"/>
      <point x="303" y="-159"/>
      <point x="280" y="-143"/>
      <point x="280" y="-110" type="curve" smooth="yes"/>
      <point x="280" y="-69"/>
      <point x="302" y="-32"/>
      <point x="395" y="0" type="curve"/>
      <point x="377" y="42" type="line"/>
    </contour>
    <contour>
      <point x="405" y="0" type="move" name="_ogonek"/>
    </contour>
  </outline>
</glyph>
<glyph name="zero.tosf.zero" format="1">
  <advance width="600"/>
  <outline>
    <contour>
      <point x="123" y="582"/>
      <point x="35" y="464"/>
      <point x="35" y="285" type="curve" smooth="yes"/>
      <point x="35" y="105"/>
      <point x="130" y="-17"/>
      <point x="300" y="-17" type="curve" smooth="yes"/>
      <point x="475" y="-17"/>
      <point x="565" y="105"/>
      <point x="565" y="285" type="curve" smooth="yes"/>
      <point x="565" y="464"/>
      <point x="472" y="582"/>
      <point x="300" y="582" type="curve" smooth="yes"/>
    </contour>
    <contour>
      <point x="380" y="469"/>
      <point x="418" y="431"/>
      <point x="418" y="285" type="curve" smooth="yes"/>
      <point x="418" y="148"/>
      <point x="371" y="96"/>
      <point x="300" y="96" type="curve" smooth="yes"/>
      <point x="219" y="96"/>
      <point x="182" y="136"/>
      <point x="182" y="285" type="curve" smooth="yes"/>
      <point x="182" y="421"/>
      <point x="230" y="469"/>
      <point x="300" y="469" type="curve" smooth="yes"/>
    </contour>
    <contour>
      <point x="194" y="153" type="line"/>
      <point x="239" y="89" type="line"/>
      <point x="407" y="414" type="line"/>
      <point x="365" y="481" type="line"/>
    </contour>
  </outline>
</glyph>
